<?xml version="1.0" encoding="UTF-8"?>
<svg xmlns="http://www.w3.org/2000/svg" id="a" width="865.76" height="682.89" viewBox="0 0 865.76 682.89">
  <g>
    <g>
      <rect x="232.51" y="68.03" width="423.6" height="329.61" fill="#fff"></rect>
      <path d="M656.61,398.14H232.01V67.53h424.6V398.14Zm-423.6-1h422.6V68.53H233.01V397.14Z" fill="#002346"></path>
    </g>
    <path d="M285.02,370.46c-.28,0-.5-.22-.5-.5V168.36c0-.28,.22-.5,.5-.5s.5,.22,.5,.5v201.6c0,.28-.22,.5-.5,.5Z" fill="#002346"></path>
    <path d="M349.46,370.31c-.28,0-.5-.22-.5-.5V209.27c0-.28,.22-.5,.5-.5s.5,.22,.5,.5v160.54c0,.28-.22,.5-.5,.5Z" fill="#002346"></path>
    <path d="M411.74,370.31c-.28,0-.5-.22-.5-.5V165.35c0-.28,.22-.5,.5-.5s.5,.22,.5,.5v204.46c0,.28-.22,.5-.5,.5Z" fill="#002346"></path>
    <path d="M466.78,280.06c-.28,0-.5-.22-.5-.5V135.21c0-.28,.22-.5,.5-.5s.5,.22,.5,.5v144.35c0,.28-.22,.5-.5,.5Z" fill="#002346"></path>
    <path d="M533.16,357.4c-.28,0-.5-.22-.5-.5V212.55c0-.28,.22-.5,.5-.5s.5,.22,.5,.5v144.35c0,.28-.22,.5-.5,.5Z" fill="#002346"></path>
    <circle cx="533.16" cy="211.05" r="1.5" fill="#002346"></circle>
    <path d="M605.16,309.4c-.28,0-.5-.22-.5-.5V164.55c0-.28,.22-.5,.5-.5s.5,.22,.5,.5v144.35c0,.28-.22,.5-.5,.5Z" fill="#002346"></path>
    <circle cx="605.16" cy="163.05" r="1.5" fill="#002346"></circle>
    <path d="M350.96,209.91c0,.83-.67,1.5-1.5,1.5s-1.5-.67-1.5-1.5,.67-1.5,1.5-1.5h0c.83,0,1.5,.67,1.5,1.5Z" fill="#002346"></path>
    <circle cx="411.74" cy="165.35" r="1.5" fill="#002346"></circle>
    <circle cx="466.78" cy="133.71" r="1.5" fill="#002346"></circle>
    <circle cx="605.01" cy="165.35" r="1.5" fill="#263238"></circle>
    <path d="M286,166.86c0,.83-.68,1.5-1.51,1.49-.83,0-1.5-.68-1.49-1.51,0-.82,.68-1.49,1.5-1.49h0c.82,0,1.49,.67,1.49,1.49v.02Z" fill="#002346"></path>
    <path d="M356.84,289.69c-15.89,0-28.31-10.1-33.01-14.54-3.43-3.25-7.06-6.06-10.77-8.35-12.86-7.95-24.62-10.49-34.94-7.54-13.81,3.95-20.21,16.56-20.27,16.68-.12,.25-.42,.35-.67,.23-.25-.12-.35-.42-.23-.67,.06-.13,6.65-13.13,20.89-17.2,10.6-3.03,22.63-.46,35.74,7.65,3.77,2.33,7.44,5.18,10.93,8.48,4.75,4.5,17.54,14.89,33.79,14.24,12.1-.49,23.8-6.92,34.77-19.12,5.77-6.41,10.7-14.01,14.65-22.57,8.02-17.37,30.45-56.63,65.38-46.07,.6,.13,16.02,3.87,41.68,48.8,3.21,5.62,6.37,11.87,9.96,19.66,3.52,7.66,14.8,24.4,43.35,14.57,.18-.04,12.89-3.07,29.8-30.07,.33-.55,8.34-13.59,19.99-16.2,.27-.05,.54,.11,.6,.38,.06,.27-.11,.54-.38,.6-11.24,2.51-19.28,15.62-19.36,15.75-17.18,27.44-29.85,30.4-30.38,30.51-29.27,10.08-40.89-7.21-44.53-15.11-3.57-7.77-6.73-13.99-9.92-19.59-25.44-44.55-40.91-48.3-41.06-48.33-34.22-10.34-56.32,28.39-64.23,45.53-3.99,8.65-8.98,16.33-14.81,22.81-11.16,12.41-23.1,18.96-35.48,19.45-.5,.02-1.01,.03-1.5,.03Z" fill="#3c3a82"></path>
    <g>
      <rect x="283.03" y="105.02" width="73.86" height="4.11" fill="#fff"></rect>
      <path d="M357.39,109.63h-74.86v-5.11h74.86v5.11Zm-73.86-1h72.86v-3.11h-72.86v3.11Z" fill="#002346"></path>
    </g>
    <g>
      <rect x="283.03" y="114.64" width="36.49" height="4.11" fill="#fff"></rect>
      <path d="M320.02,119.25h-37.49v-5.11h37.49v5.11Zm-36.49-1h35.49v-3.11h-35.49v3.11Z" fill="#002346"></path>
    </g>
    <g>
      <path d="M238.21,41.14h411.69c3.43,0,6.21,2.78,6.21,6.21h0v20.65H232v-20.64c0-3.43,2.77-6.21,6.2-6.22,0,0,0,0,.01,0Z" fill="#3c3a82"></path>
      <path d="M656.61,68.5H231.5v-21.14c0-1.79,.69-3.48,1.96-4.75,1.27-1.27,2.95-1.97,4.74-1.97h411.7c3.7,0,6.71,3.01,6.71,6.71v21.15Zm-424.11-1h423.11v-20.14c0-3.16-2.56-5.72-5.71-5.72H238.2c-1.52,0-2.96,.6-4.03,1.68s-1.67,2.51-1.67,4.04v20.14Z" fill="#002346"></path>
    </g>
    <g>
      <path d="M251.63,55.1c0,1.99-1.6,3.61-3.59,3.62-1.99,0-3.61-1.6-3.62-3.59,0-1.99,1.6-3.61,3.59-3.62,0,0,.02,0,.02,0,1.99,0,3.59,1.61,3.59,3.59Z" fill="#fff"></path>
      <path d="M248.02,59.22c-2.26,0-4.1-1.83-4.11-4.09,0-1.1,.42-2.13,1.19-2.91s1.8-1.21,2.9-1.21c2.28,0,4.12,1.84,4.12,4.09h0c0,1.1-.42,2.13-1.19,2.91s-1.8,1.21-2.9,1.21h-.01Zm.01-7.21c-.85,0-1.63,.33-2.22,.92-.58,.59-.91,1.37-.9,2.2,0,1.71,1.4,3.1,3.11,3.1h.01c.83,0,1.61-.33,2.19-.92,.58-.59,.91-1.37,.9-2.2h0c0-1.71-1.39-3.1-3.09-3.1Z" fill="#002346"></path>
    </g>
    <g>
      <path d="M267.32,55.1c0,1.99-1.6,3.61-3.59,3.62-1.99,0-3.61-1.6-3.62-3.59,0-1.99,1.6-3.61,3.59-3.62,0,0,0,0,.01,0,1.99,0,3.6,1.6,3.61,3.58,0,0,0,0,0,.01Z" fill="#fff"></path>
      <path d="M263.72,59.22c-1.09,0-2.12-.42-2.89-1.19-.78-.77-1.21-1.8-1.21-2.9,0-1.1,.42-2.13,1.19-2.91s1.8-1.21,2.9-1.21h.01c1.1,0,2.12,.42,2.9,1.19,.78,.77,1.21,1.8,1.21,2.89h0c0,1.11-.42,2.14-1.19,2.92s-1.8,1.21-2.9,1.21h-.01Zm.01-7.21h-.01c-.84,0-1.62,.33-2.21,.92-.58,.59-.91,1.37-.9,2.2s.33,1.61,.92,2.19c.59,.58,1.36,.9,2.19,.9h.01c.83,0,1.61-.33,2.19-.92,.58-.59,.91-1.37,.9-2.2h0c0-.84-.33-1.62-.91-2.2-.58-.58-1.36-.9-2.18-.9Z" fill="#002346"></path>
    </g>
    <g>
      <path d="M283.02,55.1c0,1.99-1.6,3.61-3.59,3.62-1.99,0-3.61-1.6-3.62-3.59,0-1.99,1.6-3.61,3.59-3.62,0,0,.02,0,.02,0,1.99,0,3.59,1.61,3.59,3.59h0Z" fill="#fff"></path>
      <path d="M279.42,59.22c-2.26,0-4.1-1.83-4.11-4.09,0-1.1,.42-2.13,1.19-2.91s1.8-1.21,2.9-1.21c2.28,0,4.12,1.84,4.12,4.09h0c0,1.1-.42,2.13-1.19,2.91s-1.8,1.21-2.9,1.21h-.01Zm.01-7.21c-.85,0-1.63,.33-2.22,.92-.58,.59-.91,1.37-.9,2.2,0,1.71,1.4,3.1,3.11,3.1h.01c.83,0,1.61-.33,2.19-.92,.58-.59,.91-1.37,.9-2.2h0c0-1.71-1.39-3.1-3.09-3.1Z" fill="#002346"></path>
    </g>
    <g>
      <rect x="149.13" y="130.17" width="171.48" height="71.21" rx="3.61" ry="3.61" fill="#fff"></rect>
      <path d="M317,201.88H152.74c-2.27,0-4.11-1.84-4.11-4.11v-63.99c0-2.27,1.84-4.11,4.11-4.11h164.26c2.27,0,4.11,1.84,4.11,4.11v63.99c0,2.27-1.84,4.11-4.11,4.11Zm-164.26-71.21c-1.71,0-3.11,1.39-3.11,3.11v63.99c0,1.71,1.4,3.11,3.11,3.11h164.26c1.71,0,3.11-1.4,3.11-3.11v-63.99c0-1.71-1.4-3.11-3.11-3.11H152.74Z" fill="#002346"></path>
    </g>
    <g>
      <path d="M184.76,152.67c0,4.42-3.58,8-8,8s-8-3.58-8-8,3.58-8,8-8,8,3.58,8,8Z" fill="#3c3a82"></path>
      <path d="M176.76,161.17c-4.69,0-8.5-3.81-8.5-8.5s3.81-8.5,8.5-8.5,8.5,3.81,8.5,8.5-3.81,8.5-8.5,8.5Zm0-16c-4.14,0-7.5,3.36-7.5,7.5s3.36,7.5,7.5,7.5,7.5-3.36,7.5-7.5-3.36-7.5-7.5-7.5Z" fill="#002346"></path>
    </g>
    <g>
      <rect x="192.75" y="147.15" width="55.71" height="3.09" fill="#3c3a82"></rect>
      <path d="M248.96,150.74h-56.71v-4.09h56.71v4.09Zm-55.71-1h54.71v-2.09h-54.71v2.09Z" fill="#002346"></path>
    </g>
    <g>
      <rect x="192.75" y="154.18" width="108.35" height="3.09" fill="#fff"></rect>
      <path d="M301.6,157.77h-109.35v-4.09h109.35v4.09Zm-108.35-1h107.35v-2.09h-107.35v2.09Z" fill="#002346"></path>
    </g>
    <g>
      <path d="M184.76,177.25c0,4.42-3.58,8-8,8s-8-3.58-8-8,3.58-8,8-8,8,3.58,8,8Z" fill="#3c3a82"></path>
      <path d="M176.76,185.75c-4.69,0-8.5-3.81-8.5-8.5s3.81-8.5,8.5-8.5,8.5,3.81,8.5,8.5-3.81,8.5-8.5,8.5Zm0-16c-4.14,0-7.5,3.36-7.5,7.5s3.36,7.5,7.5,7.5,7.5-3.36,7.5-7.5-3.36-7.5-7.5-7.5Z" fill="#002346"></path>
    </g>
    <g>
      <rect x="192.75" y="171.73" width="28.45" height="3.09" fill="#3c3a82"></rect>
      <path d="M221.7,175.32h-29.45v-4.09h29.45v4.09Zm-28.45-1h27.45v-2.09h-27.45v2.09Z" fill="#002346"></path>
    </g>
    <g>
      <rect x="192.75" y="178.75" width="108.35" height="3.09" fill="#fff"></rect>
      <path d="M301.6,182.34h-109.35v-4.09h109.35v4.09Zm-108.35-1h107.35v-2.09h-107.35v2.09Z" fill="#002346"></path>
    </g>
    <g>
      <rect x="108.78" y="346.08" width="221.25" height="94.05" rx="5.46" ry="5.46" fill="#3e8a34"></rect>
      <path d="M324.57,440.63H114.24c-3.29,0-5.96-2.67-5.96-5.96v-83.13c0-3.29,2.67-5.96,5.96-5.96h210.33c3.29,0,5.96,2.67,5.96,5.96v83.13c0,3.29-2.67,5.96-5.96,5.96Zm-210.33-94.05c-2.73,0-4.96,2.22-4.96,4.96v83.13c0,2.74,2.23,4.96,4.96,4.96h210.33c2.73,0,4.96-2.22,4.96-4.96v-83.13c0-2.74-2.23-4.96-4.96-4.96H114.24Z" fill="#002346"></path>
    </g>
    <g>
      <path d="M135.09,399.06l14.15-3.06,.02-4.48-.13-19.07c-5.82,.1-11.4,2.28-15.75,6.15-5.65,4.91-8.49,12.31-7.58,19.74,.1,.91,.25,1.84,.44,2.76l8.85-2.04Z" fill="#3c3a82"></path>
      <path d="M125.85,401.7l-.1-.5c-.2-.95-.35-1.9-.45-2.81-.93-7.6,1.97-15.14,7.75-20.17,4.43-3.94,10.14-6.17,16.07-6.27h.51s.13,19.57,.13,19.57l-.02,4.89-14.54,3.14-9.35,2.16Zm22.78-28.74c-5.51,.21-10.79,2.34-14.92,6.01-5.54,4.81-8.31,12.03-7.42,19.31,.08,.72,.19,1.47,.33,2.22l8.36-1.93,13.76-2.97,.02-4.08-.13-18.55Z" fill="#002346"></path>
    </g>
    <g>
      <path d="M173,385.65c-3.41-7.34-10.49-12.3-18.55-13l-.73-.07h-2l.12,19.07v4.48l23,4.94h0c.36-1.63,.53-3.29,.51-4.95,0-3.62-.81-7.2-2.35-10.47Z" fill="#e6e7e8"></path>
      <path d="M175.22,401.66l-23.88-5.13v-4.88l-.12-19.57h2.5l.78,.07c8.21,.72,15.48,5.81,18.96,13.29,1.57,3.32,2.39,7.01,2.4,10.68,.02,1.69-.15,3.4-.52,5.06l-.11,.49Zm-22.88-5.94l22.11,4.75c.28-1.43,.41-2.89,.4-4.35,0-3.53-.8-7.08-2.3-10.26h0c-3.33-7.16-10.28-12.03-18.14-12.71l-.73-.07h-1.45s.12,22.65,.12,22.65Z" fill="#002346"></path>
    </g>
    <g>
      <path d="M150.09,398.33l-22.61,5.18c2.86,12.69,15.47,20.66,28.16,17.8,8.93-2.01,15.88-9.01,17.84-17.95l-22.39-5.3-1,.27Z" fill="#fff"></path>
      <path d="M150.41,422.4c-4.5,0-8.91-1.27-12.81-3.73-5.43-3.43-9.2-8.78-10.62-15.05l-.11-.49,24.2-5.59,22.99,5.44-.1,.48c-1.99,9.09-9.14,16.29-18.21,18.33-1.77,.4-3.56,.6-5.34,.6Zm-22.33-18.51c1.44,5.8,4.99,10.73,10.06,13.94,5.21,3.29,11.38,4.36,17.39,3,8.54-1.93,15.3-8.61,17.35-17.09l-21.78-5.16-.9,.24-22.12,5.07Z" fill="#002346"></path>
    </g>
    <g>
      <rect x="190.78" y="378.15" width="116.77" height="5.29" fill="#fff"></rect>
      <path d="M308.05,383.94h-117.77v-6.29h117.77v6.29Zm-116.77-1h115.77v-4.29h-115.77v4.29Z" fill="#002346"></path>
    </g>
    <g>
      <rect x="190.78" y="392.1" width="116.77" height="5.29" fill="#fff"></rect>
      <path d="M308.05,397.89h-117.77v-6.29h117.77v6.29Zm-116.77-1h115.77v-4.29h-115.77v4.29Z" fill="#002346"></path>
    </g>
    <g>
      <rect x="190.78" y="407.52" width="63.12" height="5.29" fill="#fff"></rect>
      <path d="M254.4,413.31h-64.12v-6.29h64.12v6.29Zm-63.12-1h62.12v-4.29h-62.12v4.29Z" fill="#002346"></path>
    </g>
    <g>
      <rect x="408.61" y="265.08" width="230.69" height="222.12" rx="11.59" ry="11.59" fill="#fff"></rect>
      <path d="M627.71,487.7h-207.51c-6.67,0-12.09-5.42-12.09-12.09v-198.94c0-6.67,5.42-12.09,12.09-12.09h207.51c6.67,0,12.09,5.42,12.09,12.09v198.94c0,6.67-5.42,12.09-12.09,12.09Zm-207.51-222.12c-6.11,0-11.09,4.97-11.09,11.09v198.94c0,6.12,4.98,11.09,11.09,11.09h207.51c6.11,0,11.09-4.98,11.09-11.09v-198.94c0-6.12-4.98-11.09-11.09-11.09h-207.51Z" fill="#002346"></path>
    </g>
    <rect x="424.73" y="417.24" width="7.57" height="2.18" fill="#002346"></rect>
    <rect x="441.86" y="428.91" width="9.69" height="2.18" fill="#002346"></rect>
    <rect x="475.57" y="428.91" width="9.69" height="2.18" fill="#002346"></rect>
    <rect x="509.27" y="428.91" width="9.69" height="2.18" fill="#002346"></rect>
    <rect x="542.98" y="428.91" width="9.69" height="2.18" fill="#002346"></rect>
    <rect x="576.69" y="428.91" width="9.69" height="2.18" fill="#002346"></rect>
    <rect x="610.4" y="428.91" width="9.69" height="2.18" fill="#002346"></rect>
    <rect x="424.73" y="388.1" width="7.57" height="2.18" fill="#002346"></rect>
    <rect x="424.73" y="333.25" width="7.57" height="2.18" fill="#002346"></rect>
    <rect x="424.73" y="305.7" width="7.57" height="2.18" fill="#002346"></rect>
    <rect x="425.12" y="360.68" width="7.57" height="2.18" fill="#002346"></rect>
    <path d="M611.5,362.27h-164.8c-.28,0-.5-.22-.5-.5s.22-.5,.5-.5h164.8c.28,0,.5,.22,.5,.5s-.22,.5-.5,.5Z" fill="#002346"></path>
    <path d="M609.66,334.84h-164.28c-.28,0-.5-.22-.5-.5s.22-.5,.5-.5h164.28c.28,0,.5,.22,.5,.5s-.22,.5-.5,.5Z" fill="#002346"></path>
    <path d="M619.76,307.29h-176.59c-.28,0-.5-.22-.5-.5s.22-.5,.5-.5h176.59c.28,0,.5,.22,.5,.5s-.22,.5-.5,.5Z" fill="#002346"></path>
    <g>
      <path d="M443.02,413.52v-24.33l15.37-23.54,10.44,7.9,21.4-32.81,12.58,8.78,17.57-30.32,14.28,11.46,21.4-40.14,23.06,44.87,18.67-22.45,21.96-6.2v106.72l-176.74,.06Z" fill="#3e8a34"></path>
      <path d="M442.52,414.02v-24.98l15.74-24.11,10.44,7.9,21.39-32.79,12.56,8.76,17.59-30.35,14.27,11.45,21.57-40.45,23.15,45.05,18.29-21.99,22.74-6.42v107.88h-.5l-177.24,.06Zm1-24.68v23.68l175.74-.06v-105.56l-21.17,5.98-19.06,22.91-22.97-44.69-21.24,39.83-14.3-11.47-17.55,30.29-12.6-8.8-21.41,32.83-10.44-7.9-14.99,22.97Z" fill="#002346"></path>
    </g>
    <path d="M446.63,394.13c-.09,0-.18-.03-.27-.08-.23-.15-.3-.46-.15-.69l29.34-46.3c.09-.14,.24-.23,.41-.23,.17-.01,.32,.07,.42,.2l23.68,32.24,37.08-60.69c.09-.15,.25-.24,.43-.24h44.48l17.56-23.57c.09-.13,.24-.2,.4-.2h22.2c.28,0,.5,.22,.5,.5s-.22,.5-.5,.5h-21.95l-17.56,23.57c-.09,.13-.24,.2-.4,.2h-44.45l-37.32,61.09c-.09,.14-.24,.23-.41,.24-.19,0-.33-.07-.42-.2l-23.69-32.25-28.95,45.68c-.1,.15-.26,.23-.42,.23Z" fill="#002346"></path>
    <g>
      <path d="M493.25,364.76c.06,2.17-1.65,3.99-3.82,4.05-2.17,.06-3.99-1.65-4.05-3.82-.06-2.17,1.65-3.99,3.82-4.05h.12c2.12-.05,3.89,1.63,3.94,3.75,0,0,0,0,0,0v.07Z" fill="#fff"></path>
      <path d="M489.31,369.31c-2.39,0-4.37-1.91-4.44-4.31-.07-2.44,1.86-4.49,4.3-4.56h.13c1.15-.01,2.25,.4,3.09,1.2,.84,.8,1.32,1.88,1.35,3.04l-.5,.08h.5c.03,1.17-.4,2.3-1.21,3.16-.81,.86-1.91,1.36-3.1,1.39-.04,0-.09,0-.13,0Zm.1-7.88s-.06,0-.08,0h-.13c-1.88,.06-3.37,1.64-3.32,3.54,.05,1.9,1.66,3.36,3.54,3.34,.92-.03,1.77-.41,2.4-1.08s.96-1.54,.94-2.46v-.08c-.02-.89-.39-1.72-1.04-2.34-.63-.6-1.44-.92-2.31-.92Z" fill="#002346"></path>
    </g>
    <g>
      <path d="M530,335.78c.05,1.48-1.11,2.73-2.6,2.78-1.48,.05-2.73-1.11-2.78-2.6-.05-1.48,1.11-2.73,2.59-2.78h.09c1.46,0,2.66,1.15,2.69,2.61v-.02Z" fill="#fff"></path>
      <path d="M527.31,339.07c-1.71,0-3.13-1.36-3.19-3.08-.06-1.76,1.32-3.24,3.07-3.3h.13c1.7,0,3.12,1.38,3.17,3.08h0c.06,1.76-1.32,3.24-3.08,3.3-.04,0-.07,0-.11,0Zm.01-5.38h-.01c-1.28,.04-2.23,1.06-2.19,2.26,.04,1.21,1.05,2.17,2.26,2.11,1.2-.04,2.15-1.05,2.11-2.25h0c-.03-1.17-1-2.12-2.17-2.12Z" fill="#002346"></path>
    </g>
    <g>
      <path d="M573.52,318.26c.05,1.48-1.11,2.73-2.6,2.78-1.48,.05-2.73-1.11-2.78-2.6-.05-1.48,1.11-2.73,2.59-2.78h.09c1.46,0,2.66,1.15,2.69,2.61v-.02Z" fill="#fff"></path>
      <path d="M570.83,321.54c-.81,0-1.58-.3-2.17-.86-.62-.58-.98-1.37-1.01-2.22-.06-1.76,1.32-3.24,3.07-3.3h.13c1.7,0,3.12,1.37,3.17,3.08h0c.03,.85-.27,1.66-.86,2.29-.58,.62-1.37,.98-2.22,1.01-.04,0-.08,0-.11,0Zm.02-5.38h-.01c-1.29,.04-2.23,1.06-2.19,2.26,.02,.58,.27,1.13,.69,1.53,.43,.4,1,.62,1.57,.59,.58-.02,1.13-.27,1.53-.69,.4-.43,.61-.98,.59-1.56h0c-.03-1.17-1-2.12-2.17-2.12Z" fill="#002346"></path>
    </g>
    <g>
      <ellipse cx="452.93" cy="458.06" rx="11.07" ry="10.65" fill="#e6e7e8"></ellipse>
      <path d="M452.93,469.21c-6.38,0-11.57-5-11.57-11.15s5.19-11.15,11.57-11.15,11.57,5,11.57,11.15-5.19,11.15-11.57,11.15Zm0-21.3c-5.83,0-10.57,4.55-10.57,10.15s4.74,10.15,10.57,10.15,10.57-4.55,10.57-10.15-4.74-10.15-10.57-10.15Z" fill="#002346"></path>
    </g>
    <g>
      <rect x="480.41" y="450.92" width="129.99" height="3.98" fill="#e6e7e8"></rect>
      <path d="M610.9,455.4h-130.99v-4.98h130.99v4.98Zm-129.99-1h128.99v-2.98h-128.99v2.98Z" fill="#002346"></path>
    </g>
    <g>
      <rect x="480.41" y="460.88" width="53.97" height="3.98" fill="#e6e7e8"></rect>
      <path d="M534.88,465.36h-54.97v-4.98h54.97v4.98Zm-53.97-1h52.97v-2.98h-52.97v2.98Z" fill="#002346"></path>
    </g>
    <g>
      <rect x="565.04" y="92.56" width="153.17" height="127.04" rx="6.81" ry="6.81" fill="#e6e7e8"></rect>
      <path d="M711.4,220.1h-139.55c-4.03,0-7.31-3.28-7.31-7.31V99.37c0-4.03,3.28-7.31,7.31-7.31h139.55c4.03,0,7.31,3.28,7.31,7.31v113.42c0,4.03-3.28,7.31-7.31,7.31Zm-139.55-127.04c-3.48,0-6.31,2.83-6.31,6.31v113.42c0,3.48,2.83,6.31,6.31,6.31h139.55c3.48,0,6.31-2.83,6.31-6.31V99.37c0-3.48-2.83-6.31-6.31-6.31h-139.55Z" fill="#002346"></path>
    </g>
    <g>
      <g>
        <rect x="591.78" y="143.43" width="8.26" height="62.33" fill="#3c3a82"></rect>
        <path d="M600.54,206.26h-9.26v-63.33h9.26v63.33Zm-8.26-1h7.26v-61.33h-7.26v61.33Z" fill="#002346"></path>
      </g>
      <g>
        <rect x="602.64" y="136.74" width="8.26" height="69.02" fill="#3e8a34"></rect>
        <path d="M611.4,206.26h-9.26v-70.02h9.26v70.02Zm-8.26-1h7.26v-68.02h-7.26v68.02Z" fill="#002346"></path>
      </g>
      <g>
        <rect x="613.5" y="161.96" width="8.26" height="43.8" fill="#fff"></rect>
        <path d="M622.26,206.26h-9.26v-44.8h9.26v44.8Zm-8.26-1h7.26v-42.8h-7.26v42.8Z" fill="#002346"></path>
      </g>
    </g>
    <g>
      <g>
        <rect x="631.78" y="131.53" width="8.26" height="74.23" fill="#3c3a82"></rect>
        <path d="M640.54,206.26h-9.26v-75.23h9.26v75.23Zm-8.26-1h7.26v-73.23h-7.26v73.23Z" fill="#002346"></path>
      </g>
      <g>
        <rect x="642.64" y="123.56" width="8.26" height="82.2" fill="#3e8a34"></rect>
        <path d="M651.4,206.26h-9.26V123.06h9.26v83.2Zm-8.26-1h7.26V124.06h-7.26v81.2Z" fill="#002346"></path>
      </g>
      <g>
        <rect x="653.5" y="153.59" width="8.26" height="52.16" fill="#fff"></rect>
        <path d="M662.26,206.26h-9.26v-53.17h9.26v53.17Zm-8.26-1h7.26v-51.17h-7.26v51.17Z" fill="#002346"></path>
      </g>
    </g>
    <g>
      <g>
        <rect x="671.78" y="114.37" width="8.26" height="91.39" fill="#3c3a82"></rect>
        <path d="M680.54,206.26h-9.26V113.87h9.26v92.39Zm-8.26-1h7.26V114.87h-7.26v90.39Z" fill="#002346"></path>
      </g>
      <g>
        <rect x="682.64" y="104.56" width="8.26" height="101.2" fill="#3e8a34"></rect>
        <path d="M691.4,206.26h-9.26V104.06h9.26v102.2Zm-8.26-1h7.26V105.06h-7.26v100.2Z" fill="#002346"></path>
      </g>
      <g>
        <rect x="693.5" y="141.54" width="8.26" height="64.22" fill="#fff"></rect>
        <path d="M702.26,206.26h-9.26v-65.22h9.26v65.22Zm-8.26-1h7.26v-63.22h-7.26v63.22Z" fill="#002346"></path>
      </g>
    </g>
    <path d="M712.66,212.09h-138.55c-.28,0-.5-.22-.5-.5s.22-.5,.5-.5h138.55c.28,0,.5,.22,.5,.5s-.22,.5-.5,.5Z" fill="#002346"></path>
    <g>
      <rect x="574.11" y="194.67" width="5.04" height="1.67" fill="#fff"></rect>
      <path d="M579.65,196.84h-6.04v-2.67h6.04v2.67Zm-5.04-1h4.04v-.67h-4.04v.67Z" fill="#002346"></path>
    </g>
    <g>
      <rect x="574.11" y="172.49" width="5.04" height="1.67" fill="#fff"></rect>
      <path d="M579.65,174.66h-6.04v-2.67h6.04v2.67Zm-5.04-1h4.04v-.67h-4.04v.67Z" fill="#002346"></path>
    </g>
    <g>
      <rect x="574.11" y="130.73" width="5.04" height="1.67" fill="#fff"></rect>
      <path d="M579.65,132.9h-6.04v-2.67h6.04v2.67Zm-5.04-1h4.04v-.67h-4.04v.67Z" fill="#002346"></path>
    </g>
    <g>
      <rect x="574.11" y="109.76" width="5.04" height="1.67" fill="#fff"></rect>
      <path d="M579.65,111.93h-6.04v-2.67h6.04v2.67Zm-5.04-1h4.04v-.67h-4.04v.67Z" fill="#002346"></path>
    </g>
    <g>
      <rect x="574.37" y="151.61" width="5.04" height="1.67" fill="#fff"></rect>
      <path d="M579.91,153.78h-6.04v-2.67h6.04v2.67Zm-5.04-1h4.04v-.67h-4.04v.67Z" fill="#002346"></path>
    </g>
    <g>
      <rect x="388.67" y="82.24" width="157.11" height="44.05" rx="4.45" ry="4.45" fill="#3e8a34"></rect>
      <path d="M541.33,126.79h-148.21c-2.73,0-4.95-2.22-4.95-4.95v-35.15c0-2.73,2.22-4.95,4.95-4.95h148.21c2.73,0,4.95,2.22,4.95,4.95v35.15c0,2.73-2.22,4.95-4.95,4.95Zm-148.21-44.05c-2.18,0-3.95,1.77-3.95,3.95v35.15c0,2.18,1.77,3.95,3.95,3.95h148.21c2.18,0,3.95-1.77,3.95-3.95v-35.15c0-2.18-1.77-3.95-3.95-3.95h-148.21Z" fill="#002346"></path>
    </g>
    <g>
      <path d="M421.78,110.27c-3.31,4.12-9.34,4.78-13.47,1.47-4.12-3.31-4.78-9.34-1.47-13.47,3.31-4.12,9.34-4.78,13.47-1.47h0c4.1,3.33,4.75,9.33,1.47,13.47Z" fill="#fff"></path>
      <path d="M414.3,114.34c-2.22,0-4.44-.73-6.3-2.22-4.33-3.48-5.03-9.84-1.54-14.17,3.48-4.33,9.84-5.03,14.17-1.55,4.29,3.49,4.98,9.84,1.55,14.17h0c-1.99,2.48-4.92,3.77-7.87,3.77Zm.02-19.15c-2.66,0-5.3,1.16-7.09,3.39-3.14,3.9-2.51,9.63,1.39,12.77,3.9,3.13,9.63,2.51,12.77-1.39,3.09-3.9,2.47-9.63-1.4-12.77-1.67-1.34-3.68-1.99-5.67-1.99Z" fill="#002346"></path>
    </g>
    <g>
      <path d="M748.22,368.35c4.69,21,9.36,21.24,2.19,122.17-.56,7.93,3.52,38,2.42,72.86-.85,26.83-3.59,36.5-3.59,36.5h-21.76s-10.63-92.49-12.59-110.81c-1.76-16.42-5.18-71.16-5.88-82.35-.07-1.13-1.01-2.01-2.14-2.01h0c-1.02,0-1.89,.71-2.1,1.7-1.12,5.25-4.83,24.41-13.02,80.85,0,0,3.28,42.55-9.07,109.3h-23.87s-5.32-95.47-5.43-110.52c-.11-15.05,7.39-101.45,9.57-116.67,2.18-15.22,10.28-23.49,10.28-23.49l64.54-1.52s7.91,12.61,10.45,24" fill="#3e8a34"></path>
      <path d="M749.62,600.38h-22.58l-.05-.44c-.11-.92-10.65-92.7-12.59-110.81-1.76-16.48-5.21-71.51-5.88-82.37-.05-.86-.78-1.54-1.65-1.54-.77,0-1.45,.55-1.61,1.31-1.21,5.71-4.91,25.01-13.01,80.76,.13,1.81,2.94,44.42-9.08,109.37l-.08,.41h-24.76l-.03-.47c-.05-.95-5.32-95.65-5.43-110.54-.11-15.22,7.43-101.75,9.57-116.75,2.18-15.21,10.34-23.68,10.42-23.77l.14-.15,65.03-1.53,.15,.24c.08,.13,7.98,12.81,10.51,24.15h0c.58,2.58,1.15,4.84,1.71,7.03,3.94,15.5,6.79,26.71,.49,115.29-.2,2.82,.19,8.46,.74,16.27,.95,13.63,2.39,34.22,1.68,56.58-.84,26.58-3.58,36.52-3.61,36.62l-.1,.36Zm-21.69-1h20.93c.48-1.99,2.73-12.37,3.48-36.02,.7-22.3-.73-42.87-1.68-56.47-.55-7.85-.94-13.52-.74-16.41,6.28-88.42,3.45-99.56-.47-114.97-.56-2.19-1.13-4.46-1.71-7.04h0c-2.3-10.32-9.14-21.81-10.24-23.6l-64.04,1.51c-1.06,1.17-8.03,9.28-10.01,23.07-2.15,14.98-9.68,101.4-9.56,116.59,.1,14.32,5,102.72,5.4,110.02h22.98c12.11-65.68,9.02-108.34,8.99-108.76v-.05s0-.06,0-.06c8.1-55.82,11.81-75.16,13.02-80.88,.26-1.22,1.35-2.1,2.59-2.1,1.4,0,2.56,1.09,2.64,2.48,.67,10.86,4.11,65.87,5.87,82.33,1.87,17.46,11.74,103.39,12.54,110.36Z" fill="#002346"></path>
    </g>
    <g>
      <path d="M660.6,596.56s.66,13.09-1.54,15.26c-3.13,3.1-23,10.43-29.18,12.67-3.16,1.13-5.26,2.9-6.12,5.16-.55,1.6,.31,3.35,1.92,3.9,.32,.11,.66,.16,.99,.16h54.33s1.93-.75,2.16-4.2c.19-2.92-2.62-11.34-2.62-11.34-.5-1.9,.73-21.61,.73-21.61h-20.67Z" fill="#f2b3c1"></path>
      <path d="M681.09,634.2h-54.42c-.39,0-.78-.06-1.15-.19-1.86-.63-2.86-2.66-2.22-4.52,.91-2.41,3.13-4.29,6.42-5.46,16.12-5.84,26.96-10.54,29-12.56,1.68-1.65,1.58-11.31,1.4-14.89l-.03-.52h21.71l-.03,.52c-.49,7.89-1.1,20.12-.75,21.46,.11,.32,2.83,8.51,2.64,11.5-.25,3.72-2.38,4.59-2.47,4.63l-.09,.03Zm-19.98-37.15c.11,2.69,.4,13.04-1.71,15.12-3.08,3.05-21.56,9.95-29.36,12.78-3.01,1.08-5.02,2.76-5.83,4.87-.45,1.33,.27,2.8,1.62,3.26,.27,.09,.55,.14,.84,.14h54.22c.32-.17,1.6-1.01,1.78-3.74,.18-2.79-2.57-11.07-2.6-11.15-.48-1.84,.45-17.71,.67-21.27h-19.63Z" fill="#002346"></path>
    </g>
    <g>
      <path d="M622.42,635.07l.16,3.15h43.93l6.41-3.15,.16,3.15h8.38c1.01,.02,1.85-.78,1.87-1.79,0-.07,0-.14,0-.21l-.06-1.2-60.84,.05Z" fill="#fff"></path>
      <path d="M681.5,638.72h-8.9l-.15-2.87-5.83,2.87h-44.52l-.21-4.15,50.99-.04,.49-.24v.24s10.35,0,10.35,0l.08,1.67c0,.07,0,.16,0,.24-.01,.62-.27,1.2-.72,1.63-.44,.42-1.01,.65-1.61,.65Zm-7.94-1h7.9c.37,.02,.7-.12,.96-.37,.26-.25,.4-.58,.41-.93,0-.05,0-.1,0-.15l-.04-.75h-9.34s.11,2.2,.11,2.2Zm-50.5,0h43.34l4.46-2.19-47.9,.04,.11,2.15Z" fill="#002346"></path>
    </g>
    <path d="M669.84,628.25c-.08,0-.17-.02-.24-.06-13.17-7.4-11.63-15.29-11.56-15.62,.06-.27,.33-.44,.59-.38,.27,.06,.44,.32,.38,.59-.02,.11-1.38,7.55,11.07,14.54,.24,.13,.33,.44,.19,.68-.09,.16-.26,.25-.44,.25Z" fill="#002346"></path>
    <g>
      <path d="M728.41,600.08s.66,13.1-1.54,15.27c-3.13,3.1-23,10.42-29.18,12.66-3.16,1.14-5.26,2.91-6.13,5.17-.54,1.61,.33,3.36,1.94,3.9,.32,.11,.65,.16,.98,.16h54.34s1.93-.75,2.16-4.21c.19-2.91-2.62-11.33-2.62-11.33-.5-1.9,.72-21.62,.72-21.62h-20.67Z" fill="#f2b3c1"></path>
      <path d="M748.91,637.73h-54.43c-.39,0-.77-.06-1.14-.19-1.87-.63-2.88-2.66-2.25-4.52,.93-2.41,3.15-4.29,6.43-5.48,7.75-2.81,26.08-9.65,29-12.55,1.68-1.65,1.58-11.31,1.4-14.9l-.03-.52h21.71l-.03,.52c-.49,7.9-1.09,20.13-.73,21.46,.11,.32,2.83,8.51,2.64,11.49-.25,3.73-2.38,4.6-2.47,4.64l-.09,.03Zm-19.99-37.16c.11,2.7,.4,13.05-1.71,15.13-2.95,2.92-19.66,9.26-29.36,12.77-3.01,1.08-5.03,2.77-5.84,4.88-.45,1.33,.28,2.8,1.64,3.26,.27,.09,.54,.13,.82,.13h54.23c.32-.17,1.6-1.01,1.78-3.75,.18-2.78-2.57-11.06-2.6-11.14-.48-1.84,.45-17.72,.66-21.28h-19.63Z" fill="#002346"></path>
    </g>
    <g>
      <path d="M690.22,638.6l.17,3.15h43.93l6.41-3.15,.16,3.15h8.38c1.02,.01,1.85-.8,1.87-1.81,0-.06,0-.12,0-.19l-.06-1.2-60.85,.05Z" fill="#fff"></path>
      <path d="M749.29,642.25h-8.88l-.15-2.87-5.83,2.87h-44.52l-.22-4.15,51.01-.04,.49-.24v.24s10.35,0,10.35,0l.08,1.67c0,.06,0,.14,0,.22,0,.62-.26,1.21-.71,1.64-.44,.43-1.02,.66-1.63,.66Zm-7.93-1h7.9c.38-.01,.7-.13,.96-.38,.26-.25,.4-.58,.41-.94,0-.05,0-.09,0-.14l-.04-.74h-9.34s.11,2.2,.11,2.2Zm-50.5,0h43.34l4.46-2.19-47.91,.04,.12,2.15Z" fill="#002346"></path>
    </g>
    <path d="M737.64,631.81c-.08,0-.17-.02-.24-.06-13.13-7.39-12.4-14.82-12.37-15.14,.03-.27,.28-.48,.56-.44,.27,.03,.47,.28,.44,.55h0c0,.07-.62,7.12,11.86,14.15,.24,.13,.33,.44,.19,.68-.09,.16-.26,.25-.44,.25Z" fill="#002346"></path>
    <g>
      <path d="M733.52,273.94c-9.19,4.49-19.5,6.13-29.63,4.71-.59-.09-1.18-.18-1.77-.29-12.13-2.25-26.22-2.13-28.49-21.62-2.27-19.49,14-29.47,15.37-38.37,.31-2.25,.28-4.54-.09-6.78-.84-6-2.86-11.23,1.65-16.62,8.81-10.53,17.81-10.05,17.81-10.05,0,0,7.85-5.81,17.27,1.18,10.11,7.5,13.24,17.78,11.88,28.65-.93,6.6-1.3,13.26-1.1,19.92,.16,3.52,1.07,7.24,4,15,2.93,7.76,.8,20.36-6.93,24.25" fill="#002346"></path>
      <path d="M711.06,279.65c-2.41,0-4.82-.17-7.24-.51-.6-.09-1.2-.18-1.79-.29-1.34-.25-2.71-.47-4.08-.69-11.19-1.8-22.75-3.66-24.81-21.36-1.48-12.72,4.78-21.4,9.81-28.38,2.73-3.79,5.09-7.06,5.56-10.12,.3-2.2,.27-4.43-.09-6.62-.14-1.01-.31-1.98-.48-2.94-.85-4.84-1.66-9.41,2.24-14.08,8.3-9.92,16.72-10.27,18.05-10.23,1.16-.76,8.82-5.32,17.72,1.28,9.41,6.98,13.59,17.05,12.08,29.11-.93,6.55-1.3,13.23-1.1,19.84,.16,3.63,1.2,7.52,3.97,14.84,3.12,8.26,.67,20.92-7.16,24.87v.03c-7.11,3.48-14.84,5.26-22.67,5.26Zm-2.84-94.23c-1.09,0-9.3,.33-17.28,9.87-3.61,4.31-2.87,8.46-2.02,13.26,.17,.97,.35,1.96,.49,2.97,.37,2.28,.4,4.61,.09,6.92-.51,3.31-2.93,6.67-5.74,10.56-4.93,6.84-11.06,15.35-9.63,27.68,1.97,16.95,13.16,18.75,23.98,20.49,1.38,.22,2.75,.44,4.1,.69,.59,.11,1.17,.2,1.75,.29,10.05,1.41,20.19-.2,29.31-4.65v-.03c7.25-3.66,9.58-15.92,6.67-23.63-2.81-7.43-3.86-11.4-4.03-15.15-.2-6.68,.17-13.41,1.1-20.01,1.46-11.68-2.58-21.42-11.68-28.18-9-6.68-16.37-1.41-16.68-1.18l-.14,.11h-.18s-.05-.01-.12-.01Z" fill="#002346"></path>
    </g>
    <g>
      <path d="M695.82,235.45s1.68,6.67-.66,11.54-5.25,6.43-5.25,6.43c0,0,5.05,9.33,17.78,9.08s16.8-9.83,16.8-9.83c0,0-3.65-.75-5.23-5.51-1.58-4.76-.54-13.46-.54-13.46l-22.9,1.75h0Z" fill="#f2b3c1"></path>
      <path d="M707.19,263c-12.52,0-17.67-9.25-17.72-9.34l-.23-.43,.43-.24s2.81-1.57,5.04-6.21c2.23-4.65,.64-11.14,.63-11.21l-.14-.57,24.08-1.84-.07,.59c-.01,.09-1.01,8.65,.52,13.25,1.46,4.41,4.73,5.15,4.86,5.18l.58,.12-.23,.55c-.04,.1-4.34,9.88-17.24,10.13-.17,0-.34,0-.5,0Zm-16.61-9.42c1.13,1.74,6.35,8.64,17.1,8.43,10.59-.21,15.07-7.12,16.11-9.04-1.17-.44-3.72-1.81-5-5.65-1.37-4.14-.83-11.01-.63-13.08l-21.74,1.66c.35,1.75,1.2,7.11-.82,11.31-1.87,3.89-4.09,5.73-5.02,6.37Z" fill="#002346"></path>
    </g>
    <g>
      <path d="M671.82,259.14s1.3,9.83,1.59,21.56c.37,14.8-7.25,63.87-7.3,63,0,0,9,5.92,34.11,7.34,15.02,.87,30.01-2.17,43.5-8.82,0,0,1.48-38.51,4.51-56.43,2.7-15.92,5-23.31,5-23.31l-31.59-11.48-14.52,10.71-14.4-10.88-20.9,8.28v.03Z" fill="#fff"></path>
      <path d="M705.21,351.68c-1.67,0-3.35-.05-5.02-.14-23.48-1.33-32.86-6.51-34.2-7.32h-.35s-.09-1.48-.09-1.48l.22,.15c1.08-6.01,7.47-48.88,7.13-62.17-.29-11.57-1.57-21.41-1.59-21.51v-.44s21.47-8.51,21.47-8.51l14.33,10.82,14.44-10.65,32.29,11.73-.14,.46c-.02,.07-2.32,7.55-4.98,23.25-2.99,17.68-4.49,55.98-4.5,56.37v.3s-.28,.13-.28,.13c-12.04,5.93-25.34,9.02-38.73,9.02Zm-38.55-8.24c1.7,.96,11.31,5.83,33.58,7.09,14.8,.85,29.66-2.13,42.98-8.64,.15-3.64,1.64-39.28,4.5-56.2,2.31-13.6,4.35-21.07,4.88-22.92l-30.9-11.23-14.6,10.77-14.47-10.94-20.28,8.03c.23,1.88,1.29,10.88,1.55,21.25,.19,7.73-1.77,24.43-3.45,37.08-1.07,8.09-2.08,14.9-2.59,18.23-.68,4.5-.99,6.53-1.21,7.45Z" fill="#002346"></path>
    </g>
    <g>
      <rect x="689.02" y="187.17" width="40" height="60" rx="20" ry="20" fill="#f2b3c1"></rect>
      <path d="M709.02,247.66c-11.3,0-20.49-9.19-20.49-20.49v-20c0-11.3,9.19-20.49,20.49-20.49s20.49,9.19,20.49,20.49v20c0,11.3-9.19,20.49-20.49,20.49Zm0-60c-10.76,0-19.51,8.75-19.51,19.51v20c0,10.76,8.75,19.51,19.51,19.51s19.51-8.75,19.51-19.51v-20c0-10.76-8.75-19.51-19.51-19.51Z" fill="#002346"></path>
    </g>
    <g>
      <path d="M682.62,274c.64-7.41,1.98-14.74,4-21.9l-.04-.02c-6.18,1.23-6.63,.83-14.77,3.09-.05,.01-.1,.03-.15,.04-.26,.07-.5,.14-.78,.22,0,0,0,.02,0,.03-6.45,2.27-12.94,10.23-16.53,14.39-4.5,5.22-24.46,27.82-24.46,27.82l-29.28-26.2-14.74,17.38s35.11,40.66,44.39,44.21c10.52,4.04,27.27-14.16,38.14-29.85-1.04,19.28-2.08,37.67-2.33,40.44-1.13,12.09-10.61,39.53-9.39,53,1.22,13.47,25.79,14.2,25.79,14.2,0,0,.61-16.83,.71-39.63,.1-22.8-2.8-70.22-.56-97.22Z" fill="#3c3a82"></path>
      <path d="M682.95,411.36h-.5c-1.02-.04-25.03-.92-26.27-14.67-.75-8.33,2.53-21.91,5.43-33.88,1.81-7.48,3.52-14.55,3.96-19.21,.22-2.33,1.03-16.39,2.24-38.68-10.57,14.91-24.35,29.19-34.4,29.2-1.16,0-2.28-.19-3.33-.6-9.29-3.55-43.15-42.69-44.59-44.35l-.28-.32,15.35-18.1,29.29,26.21c2.63-2.98,20-22.65,24.12-27.44l.81-.94c3.6-4.2,9.59-11.18,15.6-13.48v-.03l1.29-.39c5.45-1.51,7.49-1.84,10.06-2.26,1.27-.2,2.7-.43,4.75-.84l.17-.03,.53,.26-.07,.42c-2.01,7.11-3.35,14.45-3.98,21.81h0c-1.49,17.94-.72,44.39-.04,67.72,.33,11.23,.64,21.83,.6,29.46-.1,22.55-.7,39.48-.71,39.65l-.02,.5Zm-13.95-109.89l-.1,1.76c-.6,11.03-2.02,37.05-2.33,40.46-.44,4.72-2.16,11.83-3.98,19.35-2.88,11.9-6.15,25.39-5.41,33.56,1.07,11.83,21.35,13.52,24.81,13.72,.1-2.98,.6-18.75,.69-39.11,.03-7.62-.27-18.21-.6-29.43-.68-23.36-1.45-49.83,.04-67.83h0c.62-7.17,1.9-14.31,3.81-21.24-1.68,.32-2.92,.52-4.04,.7-2.54,.41-4.55,.73-9.95,2.23l-.28-.44,.13,.48-.75,.23c-5.87,2.07-11.9,9.1-15.51,13.31l-.81,.94c-4.45,5.16-24.26,27.6-24.46,27.82l-.33,.38-29.27-26.19-14.13,16.66c3.34,3.85,35.29,40.45,43.91,43.75,9.9,3.8,26.42-13.6,37.55-29.67l1.01-1.45Z" fill="#002346"></path>
    </g>
    <g>
      <path d="M689.38,218.07c-.45-4.56,.57-9.13,2.91-13.07,2.26-3.76,5.98-6.4,10.27-7.3l5.81-12.79s-13.87-2.52-20.88,7.55c-12.14,17.46,1.89,25.6,1.89,25.6" fill="#002346"></path>
      <path d="M689.13,218.49c-.22-.13-5.32-3.15-6.73-9.49-1.13-5.07,.45-10.73,4.68-16.82,7.11-10.22,21.24-7.78,21.38-7.76l.63,.12-6.18,13.6-.25,.05c-4.14,.87-7.76,3.44-9.94,7.07-2.3,3.87-3.28,8.28-2.84,12.76l-.5,.05-.25,.42Zm15.46-33.35c-4.52,0-12.14,1.08-16.69,7.6-4.07,5.85-5.59,11.24-4.53,16.02,.98,4.42,3.97,7.17,5.44,8.29-.22-4.33,.83-8.56,3.06-12.31,2.28-3.79,6.04-6.51,10.35-7.48l5.43-11.95c-.64-.07-1.71-.17-3.05-.17Z" fill="#002346"></path>
    </g>
    <g>
      <path d="M703.31,201.13c5.09,14.24,22.37,8.29,25.6,15.42,0,0,6.78-10.25-1.07-22.56-7.85-12.31-19.47-9.07-19.47-9.07,0,0-8.41,6.86-5.06,16.21" fill="#002346"></path>
      <path d="M728.83,217.58l-.37-.82c-1.22-2.7-4.8-3.39-8.95-4.19-6.05-1.17-13.58-2.62-16.67-11.26-3.43-9.57,5.13-16.69,5.21-16.77l.18-.09c.12-.04,12.07-3.2,20.03,9.28,7.93,12.44,1.14,23,1.07,23.1l-.5,.75Zm-20.22-32.21c-.83,.73-7.84,7.17-4.83,15.59h0c2.9,8.11,9.81,9.44,15.91,10.62,4.01,.77,7.53,1.45,9.22,3.95,1.31-2.54,4.9-11.25-1.49-21.27-7.25-11.37-17.59-9.19-18.81-8.88Z" fill="#002346"></path>
    </g>
    <g>
      <path d="M682.88,347.7s6.31,3.39,22.54,3.39,31-7.14,31-7.14l-.44,7.79s-12.24,6.26-30.09,6.26-23.38-3.61-23.38-3.61l.37-6.65v-.04Z" fill="#e6e7e8"></path>
      <path d="M705.89,358.5c-17.79,0-23.42-3.54-23.65-3.69l-.24-.16,.43-7.72,.69,.33c.06,.03,6.43,3.33,22.3,3.33s30.64-7.02,30.78-7.09l.76-.37-.5,8.92-.26,.13c-.12,.06-12.55,6.31-30.32,6.31Zm-22.86-4.39c1.25,.65,7.43,3.39,22.86,3.39s27.76-5.21,29.61-6.08l.38-6.67c-3.25,1.44-16.38,6.84-30.45,6.84s-20.04-2.27-22.08-3.13l-.31,5.64Z" fill="#002346"></path>
    </g>
    <g>
      <path d="M727.56,252.56s2,5.74,1.9,22c-.06,18.22-.66,136.33-.66,136.33,0,0,21.65-4.68,25.16-13,3.51-8.32-9.66-44.89-10.24-55.7-.63-11.74,14.14-66.39,14.38-78.35,0-1-30.54-11.28-30.54-11.28" fill="#3c3a82"></path>
      <path d="M728.29,411.51v-.62c0-1.18,.6-118.32,.66-136.33,.1-15.94-1.85-21.78-1.87-21.83l-.33-.96,.96,.32c30.88,10.39,30.88,11.31,30.88,11.75-.11,5.6-3.32,20.21-6.72,35.69-3.93,17.9-7.99,36.4-7.66,42.63,.22,4.12,2.35,12.25,4.6,20.84,3.66,13.97,7.82,29.81,5.6,35.08-3.57,8.46-24.62,13.1-25.52,13.29l-.61,.13Zm0-158.17c.55,2.21,1.74,8.49,1.66,21.23-.06,17.32-.61,126.34-.66,135.7,3.52-.83,21.15-5.35,24.2-12.57,2.09-4.95-2.02-20.61-5.64-34.43-2.27-8.65-4.41-16.82-4.64-21.04-.34-6.37,3.74-24.94,7.68-42.9,3.35-15.24,6.51-29.65,6.69-35.29-1.73-1.17-18.36-7-29.3-10.69Z" fill="#002346"></path>
    </g>
    <g>
      <path d="M693.59,249.71l10.7,9.89-9.23,7s-7.89-13.66-1.47-16.87" fill="#e6e7e8"></path>
      <path d="M694.91,267.34l-.28-.49c-.22-.38-5.33-9.31-3.75-14.56,.41-1.38,1.25-2.39,2.49-3.01l.22,.43,.35-.37,11.14,10.29-10.16,7.7Zm-1.38-17.01c-.84,.5-1.39,1.24-1.69,2.25-1.25,4.17,2.34,11.33,3.39,13.27l8.29-6.29-9.99-9.23Z" fill="#002346"></path>
    </g>
    <g>
      <path d="M720.89,250.21l-11.1,9.57,8.45,7.52s8.24-14.43,2.65-17.09" fill="#e6e7e8"></path>
      <path d="M718.37,268.08l-9.34-8.31,11.78-10.16,.29,.14c.96,.46,1.62,1.24,1.96,2.32,1.56,4.96-4.15,15.04-4.39,15.46l-.31,.54Zm-7.82-8.3l7.55,6.72c1.16-2.16,5.24-10.19,4-14.13-.22-.71-.6-1.22-1.15-1.57l-10.41,8.97Z" fill="#002346"></path>
    </g>
    <path d="M705.43,351.64c-.28,0-.5-.22-.5-.5,0-13.2,1.67-88.65,1.69-89.41,0-.28,.19-.48,.51-.49,.28,0,.49,.24,.49,.51-.02,.76-1.69,76.2-1.69,89.39,0,.28-.22,.5-.5,.5Z" fill="#002346"></path>
    <g>
      <path d="M598.89,273.5l-10.43-8.97c.38-1.55,.47-3.16,.09-4.75l-.04,.02c-.31-1.29-5.56-14.55-7.61-17.93s-6.2-2.26-5.91,.27c.29,2.51,2.58,9.38,2.63,9.51,0,0,0,0,0,0-.17-.13-10.85-8.36-11.87-9.1-2.75-2-3.81-3.41-6.42-3.29-1.1,.07-2.04,.8-2.37,1.85-1.02-.29-2.11,.19-2.57,1.15-1,1.57,1,3.31,1,3.31,0,0-1-.31-2.4,1.24-1.71,1.89,.57,3.87,.57,3.87-1.35,.48-2.44,1.49-3,2.81-.52,1.28,.79,2.27,8.73,8.24,1.51,1.13,7.62,6.45,9.16,8.42,5.07,6.52,8.07,6.52,8.07,6.52,0,0,.95,0,1.89-.03,1.19-.03,2.32,.52,3.02,1.48l6.24,8.6,11.22-13.23Z" fill="#f2b3c1"></path>
      <path d="M587.64,287.53l-6.6-9.11c-.6-.83-1.56-1.3-2.61-1.28-.95,.03-1.9,.02-1.9,.03-.13,0-3.3-.08-8.46-6.71-1.52-1.95-7.64-7.26-9.07-8.33-8.47-6.37-9.56-7.18-8.89-8.82,.52-1.22,1.46-2.21,2.62-2.8-.37-.46-.81-1.18-.86-2.01-.04-.73,.21-1.41,.76-2.01,.67-.74,1.28-1.11,1.76-1.28-.57-.76-1.18-1.99-.41-3.2,.48-.99,1.57-1.57,2.68-1.45,.49-1.01,1.5-1.71,2.65-1.78,2.24-.11,3.49,.87,5.21,2.21,.46,.36,.96,.75,1.53,1.17,.75,.54,6.58,5.02,10.62,8.14-.71-2.21-1.95-6.26-2.16-8.09-.14-1.23,.58-2.31,1.85-2.74,1.46-.5,3.64-.04,4.97,2.16,1.85,3.05,6.48,14.53,7.49,17.49l.04-.02,.18,.58c.35,1.47,.35,3.04-.02,4.69l10.57,9.09-11.94,14.08Zm-9.12-11.38c1.31,0,2.55,.63,3.32,1.69l5.87,8.1,10.5-12.38-10.29-8.85,.07-.29c.35-1.43,.41-2.81,.18-4.09l-.13-.41c-.33-1.39-5.57-14.52-7.55-17.79-1.06-1.74-2.67-2.13-3.81-1.74-.64,.22-1.29,.78-1.19,1.7,.28,2.43,2.51,9.12,2.61,9.41l-.46,.16-.32,.37-.21-.16c-6.79-5.24-11.03-8.48-11.62-8.91-.59-.43-1.1-.83-1.56-1.19-1.67-1.31-2.68-2.08-4.55-2.01-.88,.05-1.66,.66-1.92,1.51l-.14,.46-.46-.13c-.79-.23-1.63,.15-1.99,.89-.79,1.24,.86,2.71,.88,2.72l1.74,1.52-2.21-.68h0s-.77-.14-1.89,1.1c-.37,.41-.53,.83-.51,1.29,.06,1.01,1.03,1.87,1.04,1.88l.63,.55-.79,.28c-1.22,.43-2.2,1.35-2.71,2.54-.36,.89,1.19,2.1,8.57,7.65,1.49,1.12,7.66,6.46,9.25,8.51,4.8,6.16,7.67,6.33,7.69,6.33,0,0,.94,0,1.87-.03,.04,0,.08,0,.12,0Z" fill="#002346"></path>
    </g>
    <path d="M579.55,263.63c-.11,0-.23-.04-.32-.12-2.76-2.32-3.91-6.05-2.93-9.52,.07-.27,.35-.42,.62-.35,.27,.08,.42,.35,.34,.62-.87,3.09,.15,6.42,2.61,8.48,.21,.18,.24,.49,.06,.7-.1,.12-.24,.18-.38,.18Zm-14-.87c-.11,0-.22-.04-.32-.11-.21-.17-.25-.49-.07-.7l1.11-1.36s-.05-.03-.08-.05l-12.91-9.45c-.22-.16-.27-.48-.11-.7,.16-.22,.48-.27,.7-.11l12.91,9.45s.07,.06,.1,.1l2.59-3.17-14.37-10.68c-.22-.17-.27-.48-.1-.7,.17-.22,.48-.27,.7-.1l14.41,10.71,2.29-2.81-15.69-11.56c-.22-.16-.27-.48-.11-.7,.16-.22,.48-.27,.7-.11l15.73,11.58,.14-.17c.17-.21,.49-.25,.7-.07,.21,.17,.25,.49,.07,.7l-8,9.82c-.1,.12-.24,.18-.39,.18Z" fill="#002346"></path>
    <path d="M666.11,289.44c-.27,0-.5-.22-.5-.49-.47-28.08,4.67-33.12,4.89-33.32,.2-.19,.52-.17,.71,.03,.19,.2,.17,.52-.03,.7-.07,.07-5.03,5.23-4.57,32.57,0,.28-.22,.5-.49,.51h0Z" fill="#002346"></path>
    <g>
      <path d="M696.58,345.49h-36.68c-1.43,0-2.63-.99-2.8-2.29l-7.07-54.27c-.13-1.04,.68-1.99,1.82-2.11,.08,0,.17-.01,.25-.01h36.68c1.43,0,2.64,.98,2.8,2.29l7.07,54.27c.13,1.05-.7,1.99-1.84,2.11-.08,0-.15,.01-.23,.01" fill="#fff"></path>
      <path d="M696.58,345.99h-36.68c-1.69,0-3.1-1.18-3.29-2.73l-7.07-54.27c-.08-.61,.09-1.21,.48-1.71,.42-.54,1.07-.89,1.78-.96,.1-.01,.2-.02,.31-.02h36.69c1.69,0,3.1,1.17,3.28,2.73l7.06,54.27c.07,.62-.1,1.22-.5,1.71-.43,.54-1.08,.88-1.79,.96-.09,0-.19,.01-.28,.01Zm-44.47-58.68c-.07,0-.14,0-.2,0-.44,.05-.84,.26-1.1,.59-.22,.28-.32,.62-.28,.96l7.07,54.27c.13,1.06,1.12,1.85,2.3,1.85h36.68c.06,0,.12,0,.18,0,.45-.05,.85-.26,1.11-.59,.22-.28,.33-.62,.28-.96l-7.06-54.27c-.13-1.06-1.11-1.85-2.29-1.85h-36.69Z" fill="#002346"></path>
    </g>
    <g>
      <path d="M693.83,345.49h-34.83c-1.32,0-2.42-.98-2.57-2.29l-5.83-52.11c-.12-1.05,.64-1.99,1.69-2.11,.07,0,.14-.01,.21-.01h34.83c1.32,0,2.42,.99,2.57,2.3l5.82,52.1c.12,1.04-.62,1.99-1.67,2.11-.07,0-.15,.01-.22,.01" fill="#3e8a34"></path>
      <path d="M658.99,345.99c-1.57,0-2.88-1.17-3.06-2.73l-5.83-52.11c-.15-1.32,.81-2.51,2.13-2.66,.09,0,.18-.01,.27-.01h34.83c1.57,0,2.89,1.18,3.07,2.74l5.82,52.1c.07,.63-.1,1.26-.5,1.76-.4,.5-.97,.82-1.6,.89-.09,.01-.19,0-.28,.02h0s-34.83,0-34.83,0h0Zm0-1h34.83v0c.07,0,.11,0,.16,0,.37-.04,.7-.23,.94-.52,.23-.29,.34-.66,.29-1.03l-5.82-52.1c-.12-1.06-1.01-1.85-2.07-1.86h-34.83c-.05,0-.1,0-.16,0-.77,.09-1.33,.78-1.25,1.56l5.83,52.11c.12,1.05,1.01,1.85,2.07,1.85h0Z" fill="#002346"></path>
    </g>
    <path d="M673.16,322.24c-2.76,0-5.01-2.25-5.01-5.01s2.25-5.01,5.01-5.01,5.01,2.25,5.01,5.01-2.25,5.01-5.01,5.01Zm0-9.02c-2.21,0-4.01,1.8-4.01,4.01s1.8,4.01,4.01,4.01,4.01-1.8,4.01-4.01-1.8-4.01-4.01-4.01Z" fill="#002346"></path>
    <g>
      <path d="M658.02,294.4c0,1.21-.98,2.19-2.19,2.19s-2.19-.98-2.19-2.19,.98-2.19,2.19-2.19h0c1.21,0,2.19,.98,2.19,2.19" fill="#fff"></path>
      <path d="M655.83,297.09c-1.49,0-2.69-1.21-2.69-2.7s1.21-2.69,2.69-2.69,2.7,1.21,2.7,2.69-1.21,2.7-2.7,2.7Zm0-4.39c-.93,0-1.69,.76-1.69,1.69s.76,1.7,1.69,1.7,1.7-.76,1.7-1.7-.76-1.69-1.7-1.69Z" fill="#002346"></path>
    </g>
    <g>
      <path d="M709.18,348.11l3.74,2.51,6.27-13.87-4.03-.93c-.44-.1-.87-.23-1.29-.38-1.37-.5-4.42-1.62-4.43-1.61l-10.74-7.83s-3.64-3.42-5-4.09c-1.36-.67-4.92-.72-5.56-.67s-5.44,3.21-5.95,4.05c-.49,.81,.37,2.71,2.47,2.49,.04,0,.07,.04,.03,.06-.76,.38-3.59,1.94-3.49,3.67,.09,1.36,.93,1.19,.68,1.68-.96,1.85,.26,2.85,.91,2.85-.28,1.18,.24,2.4,1.29,3,0,.07-.02,.14-.02,.22-.07,1.47,1.06,2.71,2.53,2.78,1.43,.21,5.09-.48,7,0,2.08,.56,2.14,1.85,4.46,3,1.19,.47,3.29,.6,4.55,.64,.7,.02,1.4,.17,2.05,.43l3.13,1.26c.49,.2,.96,.45,1.4,.74Z" fill="#f2b3c1"></path>
      <path d="M713.14,351.35l-4.23-2.83c-.41-.28-.85-.51-1.31-.69l-3.13-1.26c-.59-.24-1.23-.37-1.88-.39-1.48-.05-3.5-.2-4.71-.68-1.18-.58-1.81-1.18-2.36-1.71-.59-.56-1.06-1.01-2.05-1.28-1.03-.26-2.71-.14-4.19-.04-1.13,.08-2.11,.15-2.76,.05-1.67-.08-3-1.52-2.95-3.23-.92-.66-1.43-1.77-1.33-2.88-.35-.15-.67-.43-.89-.79-.25-.41-.57-1.28,.04-2.54-.23-.21-.61-.61-.67-1.54-.09-1.42,1.32-2.65,2.54-3.44-.54-.2-1-.56-1.31-1.06-.43-.68-.5-1.47-.17-2.01,.54-.89,5.45-4.22,6.33-4.29,.64-.05,4.32-.02,5.82,.72,1.41,.7,4.97,4.03,5.12,4.17l10.66,7.77c.31,.1,.94,.33,2.3,.83l2.04,.74c.4,.15,.81,.27,1.23,.37l4.62,1.07-6.76,14.95Zm-21.39-9.99c.73,0,1.41,.05,1.97,.19,1.24,.33,1.85,.91,2.48,1.52,.52,.5,1.07,1.02,2.07,1.52,1.1,.43,3.2,.56,4.35,.59,.77,.02,1.52,.18,2.22,.46l3.12,1.26c.52,.21,1.02,.47,1.49,.79h0s3.26,2.19,3.26,2.19l5.78-12.79-3.45-.8c-.46-.11-.91-.24-1.35-.4l-2.04-.74c-.98-.36-1.92-.7-2.25-.82l-.08,.02-10.92-7.96c-1.04-.98-3.87-3.52-4.93-4.05-1.21-.59-4.63-.67-5.3-.62-.64,.14-5.14,3.12-5.57,3.82-.11,.18-.09,.58,.16,.97,.17,.27,.7,.9,1.84,.78l.41-.04,.28,.81-.39,.22c-1.52,.77-3.28,2.08-3.22,3.2,.04,.58,.23,.75,.39,.91,.15,.14,.51,.48,.24,1.02-.35,.68-.4,1.26-.13,1.7,.18,.3,.47,.44,.61,.44h.62l-.15,.61c-.23,.96,.2,1.97,1.06,2.46l.29,.16-.04,.33c0,.06-.01,.12-.02,.17-.06,1.19,.87,2.21,2.06,2.27,.59,.08,1.56,.02,2.59-.06,.82-.06,1.71-.12,2.53-.12Z" fill="#002346"></path>
    </g>
    <path d="M684.16,339.51c-.18,0-.35-.1-.44-.27-.13-.24-.04-.55,.21-.68,2.65-1.41,8.02-1.23,8.25-1.22,.28,.01,.49,.24,.48,.52,0,.28-.24,.47-.52,.48-.05,0-5.34-.18-7.75,1.1-.07,.04-.15,.06-.23,.06Zm-1.29-3c-.12,0-.25-.05-.35-.14-.2-.19-.2-.51-.01-.71,2.48-2.57,8.75-2.17,9.01-2.15,.28,.02,.48,.26,.46,.53-.02,.28-.26,.5-.53,.46-.06,0-6.07-.39-8.23,1.85-.1,.1-.23,.15-.36,.15Zm-1.13-2.45c-.09,0-.17-.02-.25-.07-.24-.14-.32-.45-.18-.68,2.04-3.49,9.23-3.91,9.54-3.93,.27-.03,.51,.2,.53,.47,.01,.28-.2,.51-.47,.53-.07,0-6.95,.41-8.72,3.43-.09,.16-.26,.25-.43,.25Zm3.25-5.84c-.17,0-.33-.08-.42-.23-.15-.23-.08-.54,.15-.69,1.39-.88,3.09-1.96,3.32-2.04,.05-.02,.11-.03,.17-.03,.95-.02,1.92,.04,2.88,.17,.27,.04,.46,.29,.42,.57-.04,.27-.29,.46-.57,.42-.87-.12-1.75-.17-2.61-.17-.35,.2-1.8,1.11-3.08,1.92-.08,.05-.18,.08-.27,.08Z" fill="#002346"></path>
    <g>
      <rect x="98.82" y="250.78" width="173.94" height="48.77" rx="4.45" ry="4.45" fill="#e6e7e8"></rect>
      <path d="M268.31,300.05H103.27c-2.73,0-4.95-2.22-4.95-4.95v-39.87c0-2.73,2.22-4.95,4.95-4.95h165.04c2.73,0,4.95,2.22,4.95,4.95v39.87c0,2.73-2.22,4.95-4.95,4.95Zm-165.04-48.77c-2.18,0-3.95,1.77-3.95,3.95v39.87c0,2.18,1.77,3.95,3.95,3.95h165.04c2.18,0,3.95-1.77,3.95-3.95v-39.87c0-2.18-1.77-3.95-3.95-3.95H103.27Z" fill="#002346"></path>
    </g>
    <g>
      <path d="M135.48,283.25c-3.66,4.57-10.33,5.3-14.9,1.64-4.57-3.66-5.3-10.33-1.64-14.9,3.66-4.57,10.33-5.3,14.9-1.64,0,0,0,0,0,0h0c4.56,3.65,5.3,10.31,1.65,14.88v.02Z" fill="#3c3a82"></path>
      <path d="M127.2,287.71c-2.44,0-4.89-.8-6.93-2.43-4.78-3.83-5.55-10.83-1.72-15.6,1.85-2.31,4.5-3.77,7.45-4.09,2.95-.32,5.84,.52,8.16,2.37,4.75,3.81,5.54,10.76,1.76,15.54l-.05,.07c-2.19,2.73-5.42,4.15-8.67,4.15Zm.03-21.2c-.37,0-.75,.02-1.12,.06-2.68,.3-5.09,1.62-6.78,3.72-3.48,4.34-2.78,10.71,1.56,14.2,4.33,3.47,10.67,2.79,14.16-1.52l.05-.06c3.47-4.34,2.77-10.7-1.57-14.18-1.81-1.45-4.01-2.22-6.3-2.22Z" fill="#002346"></path>
    </g>
    <path d="M536.64,100.16h-102.53c-.28,0-.5-.22-.5-.5s.22-.5,.5-.5h102.53c.28,0,.5,.22,.5,.5s-.22,.5-.5,.5Z" fill="#002346"></path>
    <path d="M507.75,109.36h-73.64c-.28,0-.5-.22-.5-.5s.22-.5,.5-.5h73.64c.28,0,.5,.22,.5,.5s-.22,.5-.5,.5Z" fill="#002346"></path>
    <g>
      <path d="M252.64,272.52h-102.53c-.28,0-.5-.22-.5-.5s.22-.5,.5-.5h102.53c.28,0,.5,.22,.5,.5s-.22,.5-.5,.5Z" fill="#002346"></path>
      <path d="M223.75,281.72h-73.64c-.28,0-.5-.22-.5-.5s.22-.5,.5-.5h73.64c.28,0,.5,.22,.5,.5s-.22,.5-.5,.5Z" fill="#002346"></path>
    </g>
    <g>
      <path d="M752.87,263c15.2,.11,13.58,16.56,13.79,23.5s2.57,69.36-11,76.46c-13.57,7.1-43-11-43-11l4.69-16.68,20,1.88s1.42-38.14,2.41-49c.99-10.86,3.24-25.24,13.11-25.16" fill="#3c3a82"></path>
      <path d="M747.85,365.12c-14.55,0-34.45-12.12-35.46-12.74l-.32-.2,4.9-17.45,19.89,1.87c.18-4.65,1.48-38.45,2.39-48.5,1.09-11.93,3.61-25.62,13.52-25.62h.09c14.18,.1,14.23,14.13,14.26,21.67,0,.85,0,1.63,.03,2.31l.02,.67c.66,20.8,.88,69.88-11.29,76.25-2.32,1.21-5.07,1.72-8.04,1.72Zm-34.61-13.39c3.23,1.92,29.77,17.28,42.18,10.79,11.67-6.11,11.41-54.71,10.75-75.33l-.02-.67c-.02-.69-.02-1.48-.03-2.34-.03-7.7-.07-20.58-13.27-20.67h-.08c-9.11,0-11.48,13.2-12.53,24.71-.98,10.72-2.39,48.59-2.41,48.97l-.02,.53-20.11-1.89-4.47,15.91Z" fill="#002346"></path>
    </g>
    <g>
      <path d="M682.05,623.17s-.34,2.7-4.41,2.7h-33.78s-7.26-1.71-2.91-5.44c0,0-7.89,1.24-13.09,4.36-3.11,1.87-5.84,2.54-5.51,8.92l.07,1.36h60.84s2-7.8-1.21-11.9" fill="#3c3a82"></path>
      <path d="M683.65,635.57h-61.7l-.1-1.83c-.31-5.94,2.01-7.25,4.69-8.76,.35-.2,.7-.4,1.06-.61,5.22-3.13,12.94-4.37,13.27-4.43l1.74-.27-1.34,1.15c-.94,.8-1.33,1.53-1.18,2.15,.31,1.28,2.87,2.18,3.83,2.41h33.72c3.55,0,3.9-2.17,3.91-2.27l.17-1.16,.72,.92c3.32,4.25,1.38,12,1.3,12.33l-.1,.38Zm-60.75-1h59.97c.31-1.46,1.27-6.87-.69-10.33-.52,.92-1.74,2.13-4.53,2.13h-33.89c-.42-.11-4.1-1.04-4.62-3.18-.16-.65,0-1.32,.45-2-2.51,.52-7.72,1.78-11.45,4.02-.37,.22-.73,.43-1.08,.62-2.59,1.46-4.46,2.52-4.18,7.84l.05,.88Z" fill="#002346"></path>
    </g>
    <g>
      <path d="M749.86,626.7s-.34,2.7-4.41,2.7h-33.79s-7.25-1.71-2.9-5.44c0,0-7.9,1.24-13.1,4.36-3.1,1.86-5.83,2.54-5.51,8.92l.07,1.36h60.85s2-7.8-1.21-11.9" fill="#3c3a82"></path>
      <path d="M751.46,639.1h-61.71l-.09-1.83c-.3-5.95,2.02-7.26,4.71-8.77,.34-.19,.69-.39,1.05-.6,5.22-3.13,12.95-4.37,13.28-4.42l1.74-.27-1.34,1.15c-.94,.8-1.34,1.53-1.18,2.15,.31,1.28,2.87,2.17,3.82,2.41h33.73c3.55,0,3.9-2.17,3.91-2.27l.17-1.16,.72,.92c3.32,4.25,1.38,12,1.3,12.33l-.1,.38Zm-60.76-1h59.98c.31-1.46,1.27-6.87-.69-10.33-.52,.92-1.74,2.13-4.53,2.13h-33.9c-.42-.11-4.1-1.04-4.61-3.17-.16-.65,0-1.32,.45-2-2.51,.52-7.73,1.78-11.46,4.02-.36,.22-.72,.42-1.07,.62-2.59,1.46-4.47,2.52-4.2,7.85l.05,.88Z" fill="#002346"></path>
    </g>
    <path d="M619.81,419.38h-183.41c-.28,0-.5-.22-.5-.5v-132.15c0-.28,.22-.5,.5-.5s.5,.22,.5,.5v131.65h182.91c.28,0,.5,.22,.5,.5s-.22,.5-.5,.5Z" fill="#002346"></path>
    <g>
      <polyline points="408.92 103.28 413.26 107.62 419.67 100.9" fill="#fff"></polyline>
      <path d="M413.26,108.13c-.13,0-.26-.05-.35-.15l-4.34-4.34c-.2-.2-.2-.51,0-.71s.51-.2,.71,0l3.98,3.98,6.06-6.35c.19-.2,.51-.21,.71-.02,.2,.19,.21,.51,.02,.71l-6.41,6.72c-.09,.1-.22,.15-.36,.16h0Z" fill="#002346"></path>
    </g>
    <path d="M126.26,280.13c-.13,0-.26-.05-.35-.15l-4.34-4.34c-.2-.2-.2-.51,0-.71s.51-.2,.71,0l3.98,3.98,6.06-6.35c.19-.2,.51-.21,.71-.02,.2,.19,.21,.51,.02,.71l-6.41,6.72c-.09,.1-.22,.15-.36,.16h0Z" fill="#002346"></path>
    <path d="M411.74,172.06c-3.86,0-7-3.14-7-7s3.14-7,7-7,7,3.14,7,7-3.14,7-7,7Zm0-13c-3.31,0-6,2.69-6,6s2.69,6,6,6,6-2.69,6-6-2.69-6-6-6Z" fill="#002346"></path>
  </g>
  <g>
    <ellipse cx="708.5" cy="199.5" rx="16" ry="12" fill="#002346"></ellipse>
    <path d="M708.5,212c-9.1,0-16.5-5.61-16.5-12.5s7.4-12.5,16.5-12.5,16.5,5.61,16.5,12.5-7.4,12.5-16.5,12.5Zm0-24c-8.55,0-15.5,5.16-15.5,11.5s6.95,11.5,15.5,11.5,15.5-5.16,15.5-11.5-6.95-11.5-15.5-11.5Z" fill="#002346"></path>
  </g>
</svg>
